<?xml version="1.0" encoding="UTF-8"?>
<svg width="24" height="24" viewBox="0 0 24 24" fill="none" xmlns="http://www.w3.org/2000/svg">
  <path d="M18.1 8.1C17.9 8.2 15.8 9.2 15.8 12C15.8 15.3 18.4 16.2 18.5 16.2C18.5 16.2 18.2 17.4 17.4 18.6C16.7 19.7 15.9 20.8 14.7 20.8C13.5 20.8 13.1 20.1 11.7 20.1C10.3 20.1 9.8 20.8 8.7 20.8C7.6 20.8 6.7 19.6 5.9 18.5C4.3 16.2 3.1 12.3 4.8 9.7C5.6 8.4 7 7.6 8.5 7.6C9.8 7.6 11 8.4 11.8 8.4C12.6 8.4 14 7.5 15.5 7.5C16.1 7.5 17.7 7.7 18.1 8.1Z" fill="#FF0000"/>
  <path d="M15.1 3.9C15.7 3.2 16.1 2.2 16 1C15 1.1 13.9 1.6 13.3 2.3C12.7 3 12.2 4 12.4 5.2C13.4 5.2 14.5 4.7 15.1 3.9Z" fill="#00AA00"/>
</svg> 